<?xml version="1.0" encoding="UTF-8" standalone="no"?><!DOCTYPE svg PUBLIC "-//W3C//DTD SVG 1.1//EN" "http://www.w3.org/Graphics/SVG/1.1/DTD/svg11.dtd"><svg width="100%" height="100%" viewBox="0 0 512 512" version="1.1" xmlns="http://www.w3.org/2000/svg" xmlns:xlink="http://www.w3.org/1999/xlink" xml:space="preserve" xmlns:serif="http://www.serif.com/" style="fill-rule:evenodd;clip-rule:evenodd;stroke-linejoin:round;stroke-miterlimit:2;"><g id="email.png"><path d="M443.485,101.86c7.404,0.424 17.04,4.026 23.955,10.705c6.565,6.341 11.397,15.817 11.972,25.94c0.269,4.739 0.252,231.594 0.021,234.99c-0.402,5.879 -3.523,19.313 -14.885,28.065c-12.69,9.775 -22.895,8.636 -33.046,8.648l-356,-0.006c-4.02,-0.007 -17.122,1.239 -30.134,-10.544c-6.781,-6.14 -9.075,-12.086 -10.669,-16.234c-2.661,-6.926 -2.275,-7.682 -2.302,-51.924c-0.009,-15.28 -0.113,-185.643 0.047,-191.002c0.52,-17.381 11.093,-30.349 24.156,-35.764c6.81,-2.823 13.688,-2.89 14.903,-2.901c14.339,-0.138 310.958,-0.009 337.998,0.003c19.253,0.008 28.162,-0.035 33.985,0.024Zm-363.745,60.358c-9.287,-7.952 -13.941,-11.804 -15.165,-12.817c-2.821,-2.335 -2.774,-3.038 -3.814,-2.462c-0.787,0.436 -0.574,0.608 -0.596,1.498c-0.065,2.615 0.057,170.259 0.067,185.064c0.021,28.69 -0.071,28.691 -0.047,29.087c0.07,1.164 0.218,1.404 1.37,1.251c0.185,-0.025 0.281,-0.037 1.721,-1.573c0.696,-0.742 0.711,-0.726 9.246,-8.741c7.275,-6.832 7.293,-6.802 9.253,-8.745c3.907,-3.875 4.127,-3.622 7.145,-6.878c1.206,-1.301 1.31,-1.17 2.617,-2.361c3.937,-3.585 3.835,-3.661 7.724,-7.298c1.363,-1.275 12.114,-11.332 16.94,-16.037c6.357,-6.197 12.553,-11.919 14.361,-13.638c13.718,-13.044 28.322,-26.852 29.247,-27.758c3.623,-3.545 13.368,-12.718 14.844,-14.15c6.242,-6.055 6.623,-6.23 6.651,-7.166c0.033,-1.122 -1.433,-2.114 -1.592,-2.252c-1.972,-1.712 -1.971,-1.679 -2.14,-1.827c-12.76,-11.169 -12.834,-11.081 -13.924,-12.074c-1.234,-1.124 -83.823,-71.048 -83.908,-71.122Zm372.095,120.282l-0.022,-123.001c-0.024,-11.921 0.236,-12.201 -0.529,-12.595c-0.942,-0.485 -0.896,0.111 -2.742,1.647c-0.567,0.472 -6.169,5.132 -7.048,5.942c-1.074,0.989 -1.087,0.961 -21.126,17.837c-0.738,0.622 -7.644,6.438 -9.174,7.83c-2.898,2.637 -2.986,2.508 -5.957,5.043c-10.928,9.323 -10.979,9.254 -11.92,10.075c-3.443,3.006 -9.61,7.937 -14.067,11.95c-2.072,1.865 -2.642,2.146 -3.837,3.167c-7.444,6.367 -7.479,6.306 -8.11,6.877c-3.425,3.095 -3.463,3.03 -6.97,6.034c-18.347,15.716 -18.444,15.599 -20.004,17.006c-7.759,6.992 -9.623,7.747 -9.564,9.184c0.058,1.416 0.544,1.183 1.565,2.18c1.578,1.541 4.763,4.725 6.074,5.931c6.677,6.142 11.155,10.536 11.837,11.175c6.719,6.291 18.444,17.423 20.044,18.942c12.755,12.11 12.834,12.009 13.93,13.074c9.567,9.296 30.23,28.585 43.535,41.43c1.034,0.998 18.269,17.39 18.964,18.02c3.712,3.361 3.865,4.665 4.941,3.395c0.258,-0.305 0.23,-1.936 0.227,-2.105c-0.098,-5.6 -0.031,-48.169 -0.047,-79.036Zm-308.206,41.142c-4.61,4.211 -37.064,35.284 -41.516,39.448c-12.056,11.277 -16.093,15.42 -18.665,17.363c-0.608,0.459 -0.871,0.284 -0.97,1.041c-0.232,1.77 3.111,1.13 4.022,1.111c8.026,-0.168 292.559,-0.026 317.999,-0.013c21.333,0.011 21.319,0.046 23.018,0.127c0.152,0.007 1.564,0.075 1.88,-0.317c0.082,-0.102 0.599,-0.742 -0.217,-1.623c-0.499,-0.538 -0.72,-0.288 -6.815,-6.144c-9.698,-9.318 -9.858,-9.12 -19.532,-18.47c-6.094,-5.889 -26.951,-25.661 -34.279,-32.723c-0.104,-0.101 -4.489,-4.122 -8.744,-8.266c-2.703,-2.632 -44.72,-42.465 -48.288,-45.702c-0.162,-0.147 -1.813,-1.645 -2.119,-1.739c-1.322,-0.406 -1.977,0.324 -6.993,4.666c-2.963,2.565 -3.033,2.45 -5.977,5.017c-5.035,4.39 -19.664,16.689 -21.228,17.586c-5.153,2.955 -15.556,8.268 -30.721,3.54c-5.713,-1.781 -10.145,-5.488 -10.913,-6.131c-26.593,-22.246 -26.53,-22.318 -28.874,-24.214c-1.816,-1.469 -2.895,0.259 -4.615,1.833c-2.554,2.337 -39.312,37.192 -56.455,53.61Zm-59.268,-194.339l-0.224,1.314c0.221,0.196 0.35,0.482 0.571,0.678c1.085,0.961 1.278,0.696 5.029,3.934c0.368,0.318 5.957,4.941 7.666,6.394c15.429,13.123 15.476,13.064 16.803,14.221c5.198,4.529 9.234,7.755 11.352,9.587c6.25,5.404 13.591,11.435 14.678,12.379c0.766,0.664 8.299,7.2 9.624,8.238c1.21,0.948 4.396,3.444 14.687,12.399c4.354,3.789 9.017,7.649 9.748,8.292c3.459,3.048 19.075,16.157 20.022,16.978c0.682,0.592 8.004,6.938 8.545,7.376c3.589,2.905 3.433,3.058 7.001,5.975c12.403,10.139 12.263,10.277 24.46,20.649c7.889,6.709 7.84,6.755 8.552,7.306c7.271,5.621 7.58,7.318 11.574,7.819c6.088,0.764 7.789,-2.484 14.734,-7.753c0.067,-0.051 5.986,-5.23 13.385,-11.503c1.039,-0.881 10.133,-8.59 12.963,-11.048c0.396,-0.344 5.492,-4.55 5.997,-5.004c2.315,-2.085 13.557,-11.4 14.681,-12.377c3.484,-3.03 3.542,-2.937 7.051,-5.933c9.87,-8.428 9.748,-8.541 10.635,-9.236c5.6,-4.391 5.459,-4.539 10.908,-9.13c0.83,-0.699 9.399,-7.921 10.345,-8.77c3.682,-3.308 3.78,-3.168 7.497,-6.416c6.398,-5.59 6.476,-5.486 7.029,-5.974c3.527,-3.109 12.05,-10.152 18.982,-16.006c3.289,-2.778 3.282,-2.756 6.591,-5.497c5.538,-4.588 5.478,-4.654 5.961,-5.051c6.741,-5.55 16.958,-14.565 25.025,-20.949c1.703,-1.348 1.614,-1.433 1.745,-1.554c0.106,-0.098 0.361,-0.052 0.387,-0.194c0.24,-1.288 -1.632,-1.252 -1.807,-1.248c-10.035,0.195 -10.019,0.144 -20.056,0.135l-322.139,-0.028Z" style="fill:#296be0;"/></g></svg>