<?xml version="1.0" encoding="UTF-8" standalone="no"?><!DOCTYPE svg PUBLIC "-//W3C//DTD SVG 1.1//EN" "http://www.w3.org/Graphics/SVG/1.1/DTD/svg11.dtd"><svg width="100%" height="100%" viewBox="0 0 512 512" version="1.1" xmlns="http://www.w3.org/2000/svg" xmlns:xlink="http://www.w3.org/1999/xlink" xml:space="preserve" xmlns:serif="http://www.serif.com/" style="fill-rule:evenodd;clip-rule:evenodd;stroke-linejoin:round;stroke-miterlimit:2;"><g id="phone.png"><path d="M211.501,481.942c-0.696,0.023 -38.018,0.284 -42.031,-0.188c-2.016,-0.237 -13.64,-1.604 -22.553,-11.621c-3.02,-3.394 -6.358,-9.062 -7.551,-13.596c-2.054,-7.8 -1.395,-8.378 -1.49,-80.039c-0,-0.255 -0.033,-303.422 -0.007,-308.995c0.023,-4.858 0.299,-11.252 6.059,-20.723c0.179,-0.294 3.442,-4.395 3.945,-4.936c2.286,-2.462 6.473,-5.69 9.629,-7.343c8.527,-4.467 12.459,-4.045 37.999,-4.042c142.612,0.014 142.598,0.036 143,0.045c16.345,0.367 28.707,10.328 33.824,25.053c2.252,6.481 1.735,12.136 1.793,38.945l0.012,313.999c0.003,38.687 0.049,38.694 -0.307,42.038c-0.226,2.128 -1.547,14.55 -12.652,23.565c-0.583,0.473 -5.738,4.08 -7.869,4.938c-9.912,3.99 -18.455,2.715 -23.8,2.9c-3.019,0.105 -103.322,-0.004 -118,0.002Zm42.961,-17.978c2.716,0.142 4.58,0.303 9.015,-1.517c10.901,-4.476 14.422,-21.032 3.269,-30.258c-8.478,-7.014 -23.716,-3.359 -27.39,8.262c-0.933,2.953 -2.54,8.643 2.147,16.047c1.236,1.953 4.613,4.794 6.23,5.554c3.2,1.504 3.219,1.514 6.729,1.913Zm-96.874,-371.464l0.058,311c-0.006,3.933 -0.201,5.593 0.499,6.329c0.742,0.78 0.927,0.602 16.355,0.635c67.812,0.149 160.08,0.031 174,0.013c4.471,-0.006 5.942,0.506 5.936,-2.978l-0.022,-259c0.08,-57.41 0.039,-57.432 -0.137,-57.919c-0.412,-1.141 -2.534,-1.156 -2.775,-1.158c-1.22,-0.009 -191.419,-0.022 -192.007,0.018c-2.384,0.164 -1.898,2.92 -1.906,3.058Zm115.913,-26.742c9.858,-0.011 12.539,0.422 14.865,-2.369c2.081,-2.497 1.705,-8.299 -3.864,-8.901c-1.289,-0.139 -55.971,-0.062 -56.003,-0.061c-7.969,0.185 -7.623,9.23 -1.962,10.959c1.374,0.419 1.413,0.353 46.964,0.373Z" style="fill:#2563eb;"/></g></svg>