<?xml version="1.0" encoding="UTF-8" standalone="no"?><!DOCTYPE svg PUBLIC "-//W3C//DTD SVG 1.1//EN" "http://www.w3.org/Graphics/SVG/1.1/DTD/svg11.dtd"><svg width="100%" height="100%" viewBox="0 0 512 512" version="1.1" xmlns="http://www.w3.org/2000/svg" xmlns:xlink="http://www.w3.org/1999/xlink" xml:space="preserve" xmlns:serif="http://www.serif.com/" style="fill-rule:evenodd;clip-rule:evenodd;stroke-linejoin:round;stroke-miterlimit:2;"><g id="website.png"><path d="M348.937,274.538c0.498,-6.033 0.498,-6.022 0.497,-6.033c-0.008,-0.159 -0.068,-1.352 -1.05,-1.697c-0.416,-0.147 -2.654,-0.178 -2.886,-0.181c-0.954,-0.013 -74.562,0 -75.997,0.009c-0.721,0.004 -2.609,-0.239 -2.843,1.885c-0.146,1.319 -0.016,56.1 -0.004,60.978c0.007,3.111 -0.291,4.137 2.818,4.303c6.014,0.321 5.984,0.416 11.981,1.113c13.659,1.588 14.08,1.846 15.124,2.489c0.458,0.281 0.831,0.511 2.584,6.2c4.238,13.751 4.483,13.66 4.753,14.88c0.143,0.646 0.258,0.722 -0.212,1.19c-0.893,0.888 -1.05,0.454 -2.258,0.166c-3.44,-0.82 -3.454,-0.675 -6.889,-1.564c-3.991,-1.032 -21.839,-3.163 -24.087,-3.304c-2.833,-0.177 -3.785,-0.311 -3.813,2.534c-0.017,1.742 -0.005,31.276 -0.004,33.995c0.021,51.156 -0.072,51.236 0.274,51.728c0.355,0.506 0.838,1.192 7.474,-1.949c6.163,-2.917 9.107,-5.436 10.964,-6.949c10.051,-8.186 15.667,-16.996 17.984,-19.943c2.124,-2.702 3.729,-5.705 5.939,-9.027c1.921,-2.888 2.206,-3.706 2.987,-4.979c1.411,-2.3 2.537,-4.432 2.562,-4.446c0.044,-0.025 1.237,-0.005 1.278,0.022c0.316,0.206 0.981,2.432 1.047,2.65c6.069,20.289 7.46,20.156 6.732,22.996c-0.107,0.419 -0.244,0.953 -2.783,4.629c-4.819,6.979 -5.378,6.565 -5.675,7.239c-0.06,0.135 -0.654,1.481 0.119,1.846c0.536,0.253 3.802,-1.524 4.869,-1.995c0.395,-0.174 3.059,-1.35 5.046,-1.912c4.005,-1.132 2.331,4.79 8.009,14.105c1.854,3.041 4.458,3.895 1.262,5.433c-4.655,2.241 -6.807,2.62 -9.233,3.576c-6.563,2.586 -22.92,6.915 -28.041,7.795c-1.193,0.205 -12.926,2.22 -14.932,2.457c-15.839,1.878 -31.338,1.295 -34.063,1.193c-18.618,-0.7 -25.637,-2.528 -30.033,-3.103c-6.015,-0.788 -12.893,-2.823 -14.016,-3.044c-5.929,-1.164 -20.253,-6.047 -23.826,-7.564c-5.286,-2.245 -13.083,-4.976 -27.023,-12.89c-6.042,-3.43 -5.926,-3.591 -11.877,-7.19c-1.07,-0.647 -2.381,-1.665 -4.129,-2.785c-2.782,-1.783 -14.554,-10.378 -22.967,-18.008c-8.767,-7.95 -14.862,-14.894 -14.972,-15.009c-5.535,-5.809 -15.75,-19.389 -17.192,-21.837c-0.377,-0.641 -9.428,-13.218 -17.162,-29.939c-8.403,-18.167 -10.326,-26.689 -11.064,-29.008c-1.712,-5.378 -1.788,-6.806 -2.715,-10.092c-1.97,-6.986 -3.03,-15.044 -3.848,-20.024c-1.771,-10.784 -2.093,-29.649 -1.638,-38c0.764,-14.035 0.706,-14.033 2.886,-27.917c1.659,-10.565 2.117,-10.451 3.416,-16.104c2.683,-11.683 10.824,-35.675 23.269,-55.903c6.985,-11.354 12.609,-19.609 25.368,-33.657c7.251,-7.984 11.978,-11.821 13.598,-13.341c6.97,-6.537 8.818,-7.637 15.228,-12.684c3.764,-2.964 8.588,-6.079 8.812,-6.247c6.612,-4.974 21.567,-13.044 23.083,-13.769c19.161,-9.164 19.475,-8.402 24.773,-10.494c6.842,-2.701 23.807,-7.145 27.083,-7.699c12.903,-2.184 13.734,-2.284 14.936,-2.428c25.124,-3.016 51.507,-0.637 56.06,0.092c16.326,2.614 19.385,3.529 21.026,4.02c6.254,1.871 9.078,1.988 23.886,7.333c12.397,4.474 26.006,11.438 34.968,16.97c8.442,5.211 8.333,5.341 15.018,9.966c3.602,2.492 13.953,10.638 22.316,18.626c18.849,18.003 30.245,35.858 34.301,42.542c12.095,19.929 18.143,38.573 18.235,38.809c1.9,4.859 1.681,4.921 3.247,9.903c1.855,5.899 1.603,5.952 3.285,11.919c1.452,5.153 2.337,12.611 2.644,14.098c3.168,15.324 3.236,43.662 1.693,57.952c-0.781,7.227 -3.446,21.416 -3.606,22.047c-1.162,4.565 -3.809,16.142 -8.765,29.092c-0.309,0.807 -2.846,7.438 -4.04,10.018c-1.611,3.481 -3.234,0.953 -4.294,-0.056c-0.75,-0.714 -3.432,-3.269 -11.137,-6.594c-2.269,-0.979 -5.165,-0.759 -3.567,-4.371c7.169,-16.209 8.857,-26.073 9.704,-29.117c2.052,-7.379 1.55,-7.468 3.157,-14.961c1.212,-5.651 2.023,-16.58 1.986,-17.028c-0.014,-0.166 -0.115,-1.398 -1.174,-1.722c-0.423,-0.13 -2.675,-0.15 -2.908,-0.152c-0.665,-0.006 -66.354,0.005 -66.997,0.011c-0.221,0.002 -2.158,0.021 -2.55,1.058c-0.379,1.005 -2.153,26.18 -3.262,31.849c-1.422,7.266 -1.127,7.312 -1.289,7.934c-0.766,2.947 -4.958,0.188 -10.054,-1.538c-4.063,-1.376 -3.994,-1.511 -8.004,-3.012c-2.717,-1.017 -2.798,-1.641 -1.988,-5.451c1.285,-6.051 2.456,-20.477 2.583,-22.932Zm-210.423,-166.021c-0.572,0.464 -6.544,5.314 -6.976,6.011c-1.462,2.358 1.277,3.274 3.869,5.11c3.064,2.17 3.163,1.99 5.97,4.043c2.055,1.503 19.421,11.488 22.121,11.656c1.494,0.093 1.789,-2.186 5.25,-9.719c1.684,-3.666 1.451,-3.764 3.387,-7.309c0.343,-0.627 0.276,-0.65 3.961,-8.011c3.292,-6.576 14.102,-24.893 19.372,-30.819c0.752,-0.846 0.984,-0.801 0.913,-1.936c-0.085,-1.344 -0.858,-0.361 -7.798,2.193c-3.643,1.341 -3.519,1.611 -7.021,2.914c-3.328,1.239 -15.865,7.118 -27.938,15.051c-3.557,2.337 -10.791,7.358 -15.109,10.816Zm17.937,270.893c-2.864,1.766 -3.026,1.456 -5.821,3.297c-0.101,0.066 -7.456,4.223 -9.301,5.534c-3.97,2.82 -9.772,5.625 -10.283,7.125c-0.3,0.88 -0.379,1.265 5.525,6.041c1.352,1.094 9.99,7.811 11.983,9.016c0.987,0.596 0.754,0.933 12.048,7.909c3.625,2.239 10.964,6.1 13.754,7.46c13.011,6.342 16.241,6.803 20.121,8.793c0.181,0.093 2.419,1.241 2.546,-0.092c0.058,-0.617 -2.069,-2.521 -6.216,-8.208c-2.731,-3.745 -10.146,-15.674 -12.213,-19.836c-1.495,-3.01 -1.777,-2.846 -3.197,-5.895c-0.196,-0.421 -0.258,-0.386 -2.615,-5.189c-1.934,-3.941 -1.999,-3.9 -3.272,-6.869c-1.247,-2.909 -1.309,-2.865 -2.478,-5.814c-2.476,-6.242 -2.923,-6.297 -3.499,-6.368c-0.858,-0.105 -1.324,0.498 -5.073,2.094c-0.165,0.07 -0.652,0.277 -2.008,1.003Zm85.019,-24.315c-3.172,0.247 -18.348,2.164 -18.991,2.275c-1.284,0.221 -1.692,0.292 -15.946,3.29c-6.617,1.392 -13.7,3.886 -14.868,4.297c-4.637,1.633 -6.889,1.653 -6.892,3.54c-0.002,1.406 1.989,5.197 3.487,9.09c1.378,3.581 1.718,3.411 3.126,6.961c1.606,4.05 8.892,17.582 14.396,25.779c0.196,0.292 1.121,1.845 2.849,4.076c3.885,5.015 7.604,11.008 16.952,19c4.97,4.249 10.486,7.03 10.864,7.204c6.324,2.921 8.48,3.816 8.854,1.845c0.155,-0.815 0.04,-63.436 0.029,-68.952c-0.029,-15.621 0.126,-15.624 -0.063,-16.968c-0.306,-2.171 -3.471,-1.446 -3.797,-1.436Zm113.975,-222.697c1.413,-0.771 1.83,-0.959 1.993,-1.032c3.062,-1.38 2.893,-1.663 5.891,-3.212c0.825,-0.426 3.454,-1.785 9.882,-6.094c6.934,-4.648 7.08,-4.819 7.562,-5.384c0.147,-0.173 1.03,-1.208 -0.71,-2.748c-3.91,-3.459 -10.274,-8.232 -11.19,-8.919c-6.783,-5.086 -6.942,-4.857 -7.531,-5.299c-1.548,-1.162 -3.371,-2.235 -3.685,-2.452c-2.627,-1.808 -2.687,-1.684 -5.365,-3.415c-3.053,-1.974 -10.568,-5.822 -10.955,-6.056c-3.051,-1.843 -14.391,-6.783 -17.923,-8.03c-5.888,-2.08 -7.109,-3.224 -7.721,-2.177c-0.148,0.253 -0.196,0.606 -0.08,0.875c0.132,0.305 0.364,0.121 2.657,3.19c6.055,8.101 8.943,13.425 10.021,14.988c1.23,1.782 1.963,3.509 2.944,5.017c1.599,2.459 9.223,17.504 9.362,17.797c1.532,3.231 1.388,3.275 2.148,4.947c4.722,10.386 4.513,10.9 5.761,10.979c0.49,0.031 1.919,-0.605 2.079,-0.677c2.764,-1.231 2.802,-1.11 4.858,-2.3Zm-85.926,24.481c2.457,-0.189 2.447,-0.146 3.985,-0.352c6.153,-0.823 6.155,-0.654 11.952,-1.394c9.131,-1.166 26.98,-5.353 33.089,-7.522c7.073,-2.511 7.111,-2.36 7.713,-2.61c2.481,-1.029 -0.252,-5.143 -1.987,-9.413c-2.454,-6.04 -4.246,-9.001 -5.645,-12.146c-1.616,-3.632 -7.285,-13.686 -9.323,-16.823c-4.309,-6.636 -4.209,-6.69 -4.617,-7.243c-4.134,-5.607 -15.274,-22.275 -31.071,-29.133c-0.503,-0.218 -5.659,-2.916 -6.681,-1.444c-0.301,0.433 -0.287,3.402 -0.285,3.699c0.01,2.162 0.01,80.997 0.023,82c0.041,3.049 1.713,2.26 2.847,2.383Zm-124.555,50.681c0.695,-4.65 0.73,-4.621 0.784,-5.024c1.076,-8.087 1.569,-7.978 3.108,-15.971c0.988,-5.13 1.194,-5.06 2.341,-10.141c2.342,-10.369 4.242,-14.259 5.132,-17.971c0.505,-2.108 -0.136,-2.237 -2.975,-3.628c-9.052,-4.436 -12.109,-6.281 -13.124,-6.894c-0.451,-0.272 -4.608,-2.512 -8.851,-5.23c-0.636,-0.407 -6.613,-4.236 -7.954,-5.083c-4.154,-2.622 -4.195,-2.983 -7.044,-4.952c-1.923,-1.329 -2.763,-0.282 -6.07,3.678c-7.5,8.984 -11.524,15.612 -13.09,17.975c-9.804,14.791 -17.549,32.943 -20.35,42.285c-1.614,5.385 -4.265,10.85 -8.529,36.869c-0.339,2.067 -0.944,9.75 -0.929,10.03c0.009,0.172 0.079,1.461 1.15,1.818c0.525,0.175 0.532,0.139 62.937,0.146c8.318,0.001 9.478,0.393 9.797,-1.999c0.884,-6.633 0.188,-6.689 2.41,-26.949c0.494,-4.507 0.696,-4.467 1.256,-8.961Zm-3.017,69.905c-0.044,-0.715 -0.397,-6.415 -0.68,-8.934c-0.038,-0.339 -0.158,-1.663 -1.785,-1.874c-1.117,-0.145 -59.783,-0.053 -64.981,-0.045c-5.221,0.008 -7.223,-0.611 -7.003,2.886c0.563,8.981 1.862,14.838 2.763,20.042c6.378,36.841 24.242,63.651 27.466,68.822c3.397,5.447 11.722,16.402 15.06,19.852c1.991,2.058 2.533,2.138 4.793,0.388c5.502,-4.259 14.831,-10.14 16.808,-11.287c3.557,-2.064 3.623,-1.931 3.929,-2.115c5.599,-3.357 5.64,-3.237 11.392,-6.294c4.089,-2.173 6.134,-2.769 6.521,-3.564c0.816,-1.674 -2.637,-9.586 -4.318,-16.939c-1.891,-8.274 -2.031,-8.235 -2.186,-8.956c-1.969,-9.185 -1.905,-9.192 -2.115,-9.981c-1.473,-5.546 -1.496,-7.795 -2.026,-10.983c-2.55,-15.344 -2.831,-21.035 -3.639,-31.02Zm228.111,-42.93c0.404,5.306 0.615,9.594 1.142,10.206c0.748,0.871 0.949,0.708 13.301,0.728c2.537,0.004 57.875,0.005 57.997,-0.002c2.571,-0.131 2.002,-2.724 1.983,-2.967c-0.946,-12.361 -1.791,-13.892 -3.155,-21.97c-1.909,-11.306 -5.33,-21.292 -6.135,-23.936c-0.547,-1.798 -7.788,-23.415 -20.409,-42.28c-3.354,-5.013 -3.576,-6.033 -9.926,-14.089c-0.419,-0.531 -6.016,-7.932 -7.261,-8.115c-1.589,-0.233 -1.348,0.588 -10.151,6.304c-11.278,7.322 -11.462,7.001 -15.662,9.552c-1.823,1.107 -6.579,3.697 -8.321,4.446c-2.129,0.915 -2.513,1.499 -6.015,2.968c-2.998,1.258 -1.728,2.756 -0.765,6.065c1.984,6.817 2.219,6.734 3.997,14.008c1.589,6.5 1.634,6.47 3.022,13.001c0.568,2.672 1.514,5.973 2.403,12.104c2.011,13.878 2.406,14.741 3.955,33.976Zm-21.144,1.931c-0.242,-3.99 -0.371,-3.965 -0.682,-7.944c-0.914,-11.683 -2.746,-19.509 -3.261,-23.097c-1.23,-8.561 -1.605,-8.48 -3.156,-16.992c-0.331,-1.815 -4.063,-15.917 -4.409,-16.901c-0.886,-2.524 -1.201,-4.271 -1.561,-5.192c-0.865,-2.211 -2.917,-0.798 -5.406,-0.042c-9.193,2.791 -9.175,2.829 -9.983,3.042c-10.143,2.681 -10.118,2.763 -11.001,2.99c-13.161,3.375 -30.779,5.123 -30.957,5.149c-9.825,1.469 -11.597,-0.16 -11.841,3.031c-0.101,1.321 -0.009,39.549 -0,42.988c0.049,20.312 -0.159,20.522 0.519,21.281c0.869,0.972 1.034,0.674 2.325,0.69c4.96,0.061 4.958,0.004 62,-0.01c16.562,-0.004 17.25,0.261 17.766,-1.051c0.233,-0.592 0.176,-0.61 -0.353,-7.942Zm-108.391,97.465c0.319,-0.017 3.638,-0.193 3.963,-0.456c0.906,-0.731 0.796,-0.84 0.837,-1.986c0.107,-3.042 0.019,-47.83 0.01,-51.99c-0.023,-11.463 0.432,-12.683 -1.849,-12.853c-0.922,-0.069 -61.625,-0.03 -66.983,-0.027c-12.398,0.008 -13.161,-0.155 -13.603,1.035c-0.411,1.105 0.72,13.643 0.826,14.826c1.042,11.555 1.295,11.509 3.135,22.964c1.058,6.588 1.154,6.555 2.489,13.087c1.421,6.952 1.818,8.3 2.027,9.008c1.706,5.79 4.591,18.003 5.315,18.802c0.821,0.906 2.59,0.207 2.798,0.125c4.868,-1.922 5.021,-1.424 9.94,-3.175c3.288,-1.17 8.416,-2.136 10.118,-2.65c6.862,-2.071 6.99,-1.469 13.93,-3.24c3.193,-0.815 18.972,-2.877 27.048,-3.47Zm-0.992,-155.817c-3.594,-0.313 -16.829,-1.936 -22.001,-2.801c-14.981,-2.506 -20.108,-4.468 -20.124,-4.472c-6.465,-1.673 -6.42,-1.744 -12.822,-3.644c-5.251,-1.558 -7.477,-3.146 -8.37,-0.826c-0.529,1.374 -5.257,19.105 -5.486,20.182c-2.751,12.954 -3.324,16.452 -3.56,17.892c-2.347,14.317 -3.302,19.099 -4.492,38.059c-0.035,0.553 -0.454,2.673 1.833,2.934c0.845,0.096 64.393,0.032 69.993,0.026c9.247,-0.009 10.582,0.469 10.794,-1.986c0.078,-0.906 0.051,-18.38 0.048,-19.978c-0.068,-43.373 0.143,-43.511 -0.451,-44.284c-0.822,-1.07 -1.932,-0.91 -5.361,-1.101Zm-5.073,-22.203c9.258,0.991 10.456,1.58 10.783,-0.46c0.07,-0.435 0.038,-0.436 0.027,-79.952c-0.001,-5.8 0.026,-5.802 -0.03,-5.942c-0.626,-1.594 -1.048,-1.425 -2.71,-0.958c-3.39,0.953 -14.875,5.712 -25.476,18.506c-2.104,2.54 -3.747,3.798 -7.965,10.104c-0.514,0.768 -2.31,2.718 -6.021,9.025c-0.167,0.284 -0.313,0.175 -2.254,3.449c-1.36,2.295 -1.186,2.38 -2.604,4.647c-0.326,0.521 -2.656,4.955 -3.194,5.908c-2.07,3.665 -10.369,21.49 -10.256,23.236c0.09,1.402 0.652,1.177 9.63,4.354c5.904,2.089 26.06,6.469 30.07,6.981c5.827,0.743 9.198,1.033 9.999,1.102Z" style="fill:#2c6bdb;"/><path d="M325.51,312.934c3.205,0.215 3.246,0.264 4.915,0.804c1.796,0.581 4.097,1.251 5.966,2.023c3.964,1.638 4.042,1.378 8.03,2.949c3.987,1.57 4.017,1.444 8.014,2.963c7.209,2.74 15.359,5.525 16.945,6.142c8.449,3.284 8.499,3.136 9.229,3.431c5.721,2.316 45.459,16.495 47.812,17.459c6.579,2.692 6.878,3.233 8.205,4.681c3.474,3.795 3.174,7.44 3.117,8.134c-0.516,6.273 -6.756,9.194 -7.022,9.358c-2.84,1.748 -3.084,1.248 -11.121,5.787c-1.729,0.977 -3.403,1.724 -3.978,2.035c-2.019,1.095 -1.088,2.492 -0.962,2.682c0.255,0.382 9.225,9.126 10.034,9.914c5.606,5.464 9.63,9.737 10.378,10.591c0.754,0.862 5.068,5.791 4.414,13.613c-0.889,10.631 -5.7,12.56 -13.236,20.782c-4.475,4.883 -11.048,6.902 -14.753,6.774c-6.132,-0.211 -9.566,-2.636 -11.019,-3.523c-1.981,-1.208 -1.898,-1.336 -20.872,-20.143c-0.437,-0.433 -1.624,-2.207 -3.032,-1.739c-1.003,0.333 -4.876,8.198 -6.383,10.655c-1.831,2.986 -1.623,3.085 -2.899,5.072c-0.813,1.265 -3.27,7.471 -9.803,7.964c-11.221,0.848 -12.706,-10.258 -13.937,-13.861c-3.104,-9.079 -2.98,-9.107 -3.283,-9.883c-0.505,-1.295 -9.639,-28.828 -10.585,-32.153c-1.173,-4.121 -1.468,-4.004 -2.732,-8.083c-1.082,-3.493 -1.122,-3.455 -2.26,-6.927c-2.719,-8.299 -2.737,-8.287 -2.959,-9.013c-1.258,-4.093 -5.628,-17.442 -6.124,-18.957c-3.369,-10.292 -4.629,-13.899 -3.324,-19.023c1.071,-4.205 5.019,-7.872 8.109,-9.183c3.506,-1.488 4.784,-1.283 5.116,-1.326Z" style="fill:#2d6cda;"/></g></svg>