<?xml version="1.0" encoding="UTF-8" standalone="no"?><!DOCTYPE svg PUBLIC "-//W3C//DTD SVG 1.1//EN" "http://www.w3.org/Graphics/SVG/1.1/DTD/svg11.dtd"><svg width="100%" height="100%" viewBox="0 0 768 768" version="1.1" xmlns="http://www.w3.org/2000/svg" xmlns:xlink="http://www.w3.org/1999/xlink" xml:space="preserve" xmlns:serif="http://www.serif.com/" style="fill-rule:evenodd;clip-rule:evenodd;stroke-linejoin:round;stroke-miterlimit:2;"><g id="BIQ-drawing.png" serif:id="BIQ drawing.png"><path d="M159.366,41.81c9.509,0.139 443.57,0.217 450.019,-0.043c4.172,0.575 4.126,0.578 8.268,1.112c44.677,4.563 98.448,35.847 107.458,106.715c0.516,4.156 0.532,4.11 1.134,8.273c-0.257,11.931 -0.25,431.963 -0,443.261c-0.788,7.888 -0.946,7.832 -1.115,15.768c-0.508,6.072 -1.002,14.449 -5.466,28.492c-6.886,21.659 -19.726,36.874 -22.442,39.245c-5.07,-3.772 -6.315,-7.109 -7.591,-10.761c-0.916,-2.624 -2.275,1.259 -2.348,1.468c-4.082,11.663 -16.432,12.115 -13.961,14.048c2.826,2.21 4.707,-0.362 11.291,7.837c-3.813,4.042 -9.246,7.396 -10.122,7.937c-22.614,13.963 -36.149,18.138 -60.599,19.949c-10.158,0.233 -10.102,0.419 -20.263,1.123c-13.308,-0.228 -410.372,-0.238 -423.007,0.005c-10.229,-0.809 -10.162,-0.983 -16.513,-1.109c-19.72,-1.574 -53.325,-5.631 -85.23,-42.47c-23.141,-26.719 -25.582,-61.511 -25.986,-67.266c-0.6,-6.796 -0.464,-6.764 -1.14,-13.516c0.266,-11.228 0.235,-429.772 0.019,-441.758c0.709,-4.133 0.611,-4.093 1.083,-8.271c5.089,-56.53 47.759,-103.136 108.236,-108.989c4.142,-0.483 4.069,-0.491 8.274,-1.05Z" style="fill:#212123;"/><path d="M559.056,500.308c-73.451,14.058 -124.716,-43.037 -124.219,-106.184c0.518,-65.873 46.547,-113.573 107.046,-111.179c86.679,3.43 127.376,112.574 74.646,180.658c-2.202,2.843 -4.449,4.108 -1.782,6.913c11.311,11.9 26.671,28.725 26.674,28.73c1.427,2.416 -1.362,1.499 -35.046,1.314c-5.356,-0.029 -4.979,-1.336 -10.666,-7.279c-4.76,-4.974 -5.129,-6.094 -7.87,-4.326c-10.761,6.942 -26.379,10.764 -28.783,11.353Z" style="fill:#fefefe;"/><path d="M267.35,500.293c-16.32,0.497 -104.563,0.542 -105.266,-0.094c-0.682,-0.617 -0.362,-0.856 -0.528,-88.824c-0.019,-10.02 -0.233,-123.694 0.053,-125.252c0.419,-2.277 1.72,-1.069 82.516,-1.219c17.579,-0.033 59.69,-5.892 72.874,38.682c3.6,12.171 4.608,35.691 -10.674,52.492c-9.909,10.894 -16.881,10.067 -12.556,11.735c29.869,11.522 40.652,45.68 32.516,72.204c-11.704,38.159 -55.152,39.832 -58.936,40.274Z" style="fill:#fefefe;"/><path d="M598.525,376.934c0.326,2.622 6.156,31.787 -8.827,58.344c-0.845,1.498 -3.119,5.985 -4.749,4.262c-0.786,-0.831 -6.408,-6.772 -9.727,-10.48c-6.205,-6.933 -6.415,-7.369 -8.594,-7.381c-2.948,-0.015 -36.274,-0.19 -36.85,-0.009c-2.062,0.649 0.156,1.527 23.669,26.886c8.315,8.967 11.562,11.388 9.237,12.738c-17.377,10.087 -63.87,12.469 -83.03,-37.18c-16.141,-41.825 5.008,-110.217 63.699,-105.394c18.108,1.488 29.982,12.534 30.317,12.801c20.723,16.539 24.527,43.942 24.855,45.412Z" style="fill:#212223;"/><path d="M201.033,430.875c0.024,-24.92 -0.293,-25.688 1.151,-25.916c0.52,-0.082 58,-0.047 58.433,-0.027c25.662,1.224 30.902,26.11 27.083,40.961c-6.309,24.537 -36.556,20.84 -37.575,20.837c-47.703,-0.1 -48.716,0.551 -49.055,-1.296c-0.093,-0.506 -0.102,-27.475 -0.037,-34.56Z" style="fill:#222224;"/><path d="M201.028,349.875c-0.177,-5.361 -0.061,-17.941 -0.047,-19.501c0.091,-9.85 -0.19,-11.23 1.206,-11.754c0.407,-0.153 53.706,-0.055 53.931,-0.051c30.704,0.635 34.673,50.474 0.011,53.883c-3.175,0.312 -53.235,0.182 -54.055,0.129c-1.815,-0.118 -1.321,-1.156 -1.046,-22.706Z" style="fill:#222224;"/><path d="M346.922,237.742c-0.14,0.378 -0.28,0.755 -0.421,1.133c-0.364,9.538 3.067,56.737 26.608,78.08c-0.012,-0.393 0.845,-0.443 0.833,-0.836c-0.063,-2.074 -4.034,-0.496 -9.919,-23.967c-4.12,-16.433 -6.837,-48.506 -5.043,-54.35c0.714,-0.037 46.121,-0.341 47.222,0.207c1.439,0.716 2.267,64.53 -21.955,85.456c-1.976,1.707 -13.726,1.987 -14.899,-0.577c-2.174,-4.756 -4.488,-2.68 -13.673,-13.338c1.325,-2.181 1.534,-2.157 1.427,-2.349c-0.103,-0.184 -0.172,-0.309 -1.499,-2.168c-3.23,-4.526 -16.491,-23.104 -17.641,-67.228c0.717,-0.01 6.437,-0.091 8.96,-0.062Z" style="fill:#c1a564;"/><path d="M400.368,196.446c-5.382,14.259 -20.031,2.086 -16.028,-10.081c0.458,-1.391 4.376,-13.3 1.724,-18.225c-1.349,-2.506 -1.197,2.854 -2.04,4.55c-2.124,4.274 -11.681,14.529 -9.888,23.423c0.033,0.164 1.445,7.586 -1.566,1.378c-2.753,-5.678 -1.602,-5.972 -1.982,-7.304c-1.007,-3.53 -5.003,7.284 -5.385,10.488c-2.139,17.904 13.606,26.582 4.898,21.79c-9.935,-5.468 -22.825,-14.61 -22.029,-33.856c0.677,-16.359 15.668,-24.833 15.121,-39.745c-0.281,-7.673 5.601,3.654 5.382,9.765c-0.101,2.83 -0.597,3.313 0.31,3.374c0.717,0.048 9.211,-11.551 9.97,-12.588c6.092,-8.319 5.892,-20.1 3.453,-26.086c-2.692,-6.607 8.61,4.402 10.693,7.102c19.75,25.605 -1.326,44.334 10.839,47.836c4.382,1.261 7.446,-4.835 6.73,-9.89c-0.473,-3.336 -1.136,-3.96 -0.002,-4.003c2.832,-0.109 20.025,30.751 -0.893,50.285c-5.733,5.353 -15.378,10.102 -11.311,5.322c6.889,-8.098 5.246,-23.391 2.003,-23.535Z" style="fill:#e16e2d;"/><path d="M143.628,41.366c0.557,0.246 1.909,0.844 7.463,1.494c-60.477,5.853 -103.147,52.459 -108.236,108.989c-0.879,-7.357 -1.412,-7.19 -1.497,-7.472c0.169,-59.271 -0.281,-102.121 0.309,-102.71c0.597,-0.597 55.35,-0.142 101.961,-0.301Z" style="fill:#fefefd;"/><path d="M623.623,41.365c61.305,0.151 102.118,-0.282 102.706,0.306c0.629,0.629 0.12,64.523 0.311,101.956c-0.099,0.275 -0.917,0.244 -1.165,3.756c-0.08,1.13 -0.176,1.071 -0.364,2.211c-9.009,-70.868 -62.781,-102.152 -107.458,-106.715c0.418,-0.062 5.068,-0.751 5.224,-0.8c0.328,-0.104 0.418,-0.611 0.746,-0.714Z" style="fill:#fefefe;"/><path d="M42.894,615.395c0.404,5.755 2.845,40.547 25.986,67.266c31.905,36.838 65.51,40.896 85.23,42.47c-0.6,0.058 -7.014,0.675 -7.485,0.846c-0.313,0.114 -0.433,0.549 -0.746,0.663c-59.869,-0.164 -103.62,0.282 -104.209,-0.308c-0.61,-0.61 -0.126,-56.265 -0.313,-102.708c0.097,-0.328 0.606,-0.419 0.703,-0.746c0.178,-0.601 0.778,-6.883 0.835,-7.482Z" style="fill:#fefefe;"/><path d="M725.13,616.896c0.054,0.54 0.602,6.018 0.819,6.73c0.099,0.325 0.596,0.422 0.694,0.747c-0.171,59.233 0.283,101.364 -0.311,101.958c-0.616,0.616 -60.748,0.123 -103.458,0.31c-0.332,-0.071 -0.414,-0.622 -0.746,-0.694c-0.647,-0.139 -0.584,-0.013 -8.235,-0.837c24.45,-1.811 37.985,-5.987 60.599,-19.949c0.876,-0.541 6.309,-3.895 10.122,-7.937c6.67,-6.002 6.653,-5.953 12.608,-12.592c2.716,-2.372 15.556,-17.587 22.442,-39.245c4.465,-14.042 4.959,-22.42 5.466,-28.492Z" style="fill:#fefefe;"/><path d="M407.174,521.222c-1.409,3.87 0.958,30.23 -1.13,30.924c-0.672,0.223 -39.203,0.085 -41.947,0.054c0.237,-1.09 0.492,-1.003 0.455,-2.095c-0.104,-3.111 0.047,-24.834 0.062,-26.994c0.019,-2.788 1.85,-2.329 13.761,-2.371c21.346,-0.076 21.831,-3.109 28.798,0.481Z" style="fill:#c0a463;"/><path d="M407.174,521.222c-6.967,-3.59 -7.453,-0.557 -28.798,-0.481c-11.911,0.042 -13.742,-0.417 -13.761,2.371c-0.015,2.159 -0.165,23.883 -0.062,26.994c0.036,1.092 -0.219,1.006 -0.455,2.095l-2.95,0.006c-0.221,-1.443 -0.311,-1.377 -0.311,-2.838c0.006,-27.37 0.404,-28.31 -1.217,-28.453c-5.809,-0.513 -1.953,3.486 -3.538,30.709l-0.225,0.577c-5.229,0.023 -5.182,0.018 -10.439,-0.036c-0.387,-0.987 -0.075,-23.673 -0.151,-29.783c-0.009,-0.722 -0.025,-2.036 -8.895,-1.539c-1.841,0.103 -1.594,1.088 -1.639,24.78c-0.009,4.508 0.846,4.792 -0.647,6.514c-1.39,-0.281 -2.585,0.439 -2.587,-2.756c-0.021,-28.443 -0.671,-28.525 0.145,-30.855c0.363,-1.037 0.809,-0.81 30.981,-0.804c23.25,-0.036 46.499,-0.073 69.749,-0.109c0.076,-0 4.495,-0.919 4.493,1.76c-0.031,32.183 -0.16,32.484 -0.845,32.755c-0.085,0.034 -3.339,0.622 -4.068,-0.652c-0.628,-1.096 0.557,-29.418 -0.587,-30.274c-0.352,-0.263 -13.931,-0.984 -14.505,0.525c-0.851,2.238 0.925,29.709 -1.055,30.469c-0.299,0.115 -3.567,1.369 -3.778,-1.306c-0.39,-4.933 0.619,-28.757 -0.803,-29.749c-0.996,-0.695 -3.737,-0.001 -4.052,0.079Z" style="fill:#dfcd9d;"/><path d="M328.961,236.579c5.641,12.426 -5.998,21.136 -10.363,14.894c-2.747,-3.928 4.412,-3.291 5.535,-6.667c3.405,-10.237 -20.141,-15.478 -19.175,4.567c1.274,26.442 44.778,38.665 42.94,57.031c-1.122,11.211 -16.819,6.301 -12.137,-0.703c2.833,-4.239 4.667,2.784 6.129,0.908c4.748,-6.093 -19.131,-20.886 -24.906,-25.868c-41.156,-35.503 -4.824,-68.86 11.979,-44.162Z" style="fill:#c0aa7b;"/><path d="M451.113,228.283c21.215,-0.778 30.154,27.81 -1.617,53.93c-5.778,4.751 -26.542,16.982 -23.075,24.127c1.081,2.228 2.788,-4.222 5.716,-1.216c6.461,6.633 -11.486,13.546 -11.825,-0.248c-0.392,-15.964 36.154,-27.004 42.146,-50.978c6.06,-24.25 -22.255,-21.115 -18.505,-9.115c1.005,3.215 8.627,3.316 5.324,7.291c-5.133,6.179 -18.56,-7.737 -6.922,-19.705c2.606,-2.68 8.004,-3.914 8.758,-4.086Z" style="fill:#b7a16f;"/><path d="M402.375,567.343c38.341,-0.023 38.334,-0.303 42.003,-0.011c9.895,0.785 8.694,11.245 6.714,11.714c-4.608,1.093 0.636,-8.039 -8.226,-8.508c-0.743,-0.039 -16.429,0.05 -16.433,0.051c-1.699,0.202 1.567,7.182 -0.686,8.222c-1.532,0.708 -71.224,0.251 -77.417,0.211c0.962,-2.263 0.586,-2.278 0.897,-5.633c0.617,-6.634 9.123,-0.47 43.494,-4.227c1.639,-0.179 4.607,0.148 6.654,-0.587l0.75,0.039l0.75,-0.074l0.75,-0.075l0.75,-1.122Z" style="fill:#bba168;"/><path d="M379.186,363.15c2.201,-0.071 5.784,-0.575 6.182,0.897c0.217,0.801 0.081,104.617 0.06,105.841c-0.05,2.898 -1.446,2.28 -7.062,2.191c0.713,-1.711 0.635,-1.786 0.682,-52.454c0.035,-37.241 -0.318,-37.17 0.139,-56.475Z" style="fill:#bba166;"/><path d="M354.349,563.455c-7.54,0.032 -7.469,0.017 -14.945,-0.026c-0.773,-2.509 1.43,-4.44 -0.723,-4.553c-2.465,-0.13 -10.929,-0.842 -11.162,2.549c-0.082,1.2 -0.449,1.001 -0.912,2.034c-2.761,-0.166 -2.846,-1.147 -1.748,-3.695c1.801,-4.18 7.219,-3.356 10.765,-3.343c19.434,0.074 101.223,-0.052 102.73,-0.006c4.095,0.125 6.928,5.87 5.186,7.069c-2.238,1.54 -1.977,-0.298 -3.878,-2.696c-1.001,-1.263 -1.479,-1.867 -20.063,-1.766c-2.572,0.014 2.63,4.31 -0.001,4.511c-0.913,0.07 -62.111,0.031 -65.25,-0.078Z" style="fill:#c8b487;"/><path d="M346.922,237.742c6.07,-0.053 6.022,-0.033 12.059,0.059c-1.794,5.844 0.923,37.917 5.043,54.35c5.885,23.471 9.856,21.893 9.919,23.967c0.012,0.393 -0.845,0.443 -0.833,0.836c-23.541,-21.343 -26.973,-68.542 -26.608,-78.08c0.14,-0.378 0.28,-0.755 0.421,-1.133Z" style="fill:#f5e5b3;"/><path d="M358.108,233.522c-8.191,0.269 -8.146,0.113 -11.956,-0.046c-0.088,-0.82 -0.054,-1.932 -0.049,-2.1c0.071,-2.364 -4.098,-1.811 -8.997,-1.733c-2.656,0.042 -1.662,1.272 -1.485,3.958c-0.241,-0.007 -4.277,0.724 -4.55,-2.972c-0.326,-4.41 4.556,-3.542 5.303,-3.541c89.709,0.086 89.701,-0.358 97.499,-0.185c4.151,0.092 4.265,4.914 1.384,6.457c-1.885,1.01 -70.977,0.231 -77.149,0.162Z" style="fill:#cdba8c;"/><path d="M388.548,365.623c0.372,-4.632 4.852,-2.735 4.848,-0.748c-0.195,97.305 0.169,97.296 0.032,105.755c-0.038,2.369 -4.347,1.889 -4.762,0.846c-0.539,-1.355 -0.153,-97.385 -0.119,-105.853Z" style="fill:#b39f6e;"/><path d="M432.837,257.581c-1.8,10.995 -4.066,32.656 -21.038,53.005c-5.344,6.407 -9.349,6.343 -13.369,12.913c-1.037,1.694 -7.955,1.763 -4.443,-0.756c0.133,-0.095 31.044,-19.593 34.023,-79.359c0.226,-4.526 -0.101,-4.656 0.55,-5.321c0.798,-0.816 5.862,-0.779 5.859,0.838c-0.015,9.385 -0.547,9.309 -1.582,18.68Z" style="fill:#b59f71;"/><path d="M379.186,363.15c-0.457,19.305 -0.104,19.234 -0.139,56.475c-0.047,50.667 0.031,50.742 -0.682,52.454c-3.506,-0.143 -2.971,-1.348 -2.987,-4.454c-0.043,-8.22 -0.399,-75.757 -0.069,-102.752c0.032,-2.645 1.265,-1.634 3.877,-1.723Z" style="fill:#eddbac;"/><path d="M402.375,567.343l-0.75,1.122l-0.75,0.075l-0.75,0.074l-0.75,-0.039c-2.047,0.734 -5.014,0.407 -6.654,0.587c-34.37,3.757 -42.877,-2.407 -43.494,4.227c-0.312,3.355 0.065,3.37 -0.897,5.633c-7.922,0.045 -7.874,0.019 -15.809,-0.108c0.124,-3.566 0.635,-3.469 0.64,-7.035c0.004,-2.541 -9.823,-2.514 -12.325,0.2c-2.348,2.547 -0.752,3.841 -1.758,6.96c-2.021,-0.097 -2.87,0.872 -3.171,-1.114c-1.579,-10.441 8.097,-10.521 9.217,-10.53c6.18,-0.051 52.852,-0.433 77.25,-0.052Z" style="fill:#f2e3b9;"/><path d="M367.82,363.158c-0.773,8.321 -0.243,8.311 -0.1,104.465c0.004,2.414 -0.535,2.595 0.907,4.476c-3.158,0.133 -4.503,0.915 -4.51,-2.225c-0.018,-8.4 -0.195,-91.26 0.075,-104.998c0.049,-2.48 1.188,-1.556 3.627,-1.719Z" style="fill:#b7a272;"/><path d="M361.044,476.434c2.115,-0.162 45.006,-0.662 46.639,0.077c2.007,0.907 2.494,7.068 -2.295,7.182c-3.359,0.08 -3.344,-0.216 -42.005,0.165c-4.685,0.046 -6.952,-5.403 -2.339,-7.424Z" style="fill:#c4b385;"/><path d="M400.6,469.125c-0.015,-8.341 -0.163,-93.733 0.002,-104.263c0.004,-0.244 0.041,-2.596 2.589,-1.614c0.658,0.254 0.736,0.49 0.741,30.127c0.012,77.628 0.085,77.761 -0.536,78.311c-2.352,2.081 -2.767,-2.259 -2.796,-2.561Z" style="fill:#b29d70;"/><path d="M391.894,504.823c1.224,-0.023 25.402,-0.303 30.009,-0.027c6.834,0.41 6.576,8.058 5.288,8.687c-2.651,1.296 -2.793,-0.172 -2.864,-3.129c-0.038,-1.597 -0.102,-4.273 -19.729,-3.077c-2.044,0.125 1.24,4.202 -0.183,5.927c-1.084,1.314 -34.264,0.454 -37.243,0.377c-0.098,-7.838 2.884,-6.555 6.711,-6.62c1.259,-0.021 11.034,-0.187 15.736,-0.362c0.945,-0.035 0.812,-0.316 2.275,-1.778Z" style="fill:#b59e6a;"/><path d="M334.086,552.139c1.493,-1.722 0.639,-2.006 0.647,-6.514c0.045,-23.691 -0.202,-24.677 1.639,-24.78c8.87,-0.497 8.886,0.817 8.895,1.539c0.075,6.11 -0.236,28.796 0.151,29.783c-5.684,0.041 -5.635,0.137 -11.332,-0.028Z" style="fill:#bda161;"/><path d="M385.11,350.715c9.385,-0.104 9.332,-0.095 18.765,-0.055c9.034,0.038 5.097,7.16 2.304,7.674c-3.308,0.609 -3.335,0.315 -42.05,0.239c-6.382,-0.013 -7.394,-5.327 -3.176,-7.445c2.082,2.603 3.722,0.987 4.204,3.178c0.252,1.143 -0.013,1.529 1.212,1.603c5.04,0.305 6.796,0.59 7.708,-1.475c0.705,-1.596 1.267,-0.862 8.782,-1.141c2.02,-0.075 1.884,-0.606 2.25,-2.578Z" style="fill:#b6a272;"/><path d="M374.596,487.487c16.428,-0.066 18.298,-0.384 18.687,1.165c1.41,5.616 1.617,5.5 4.477,10.531c0.072,0.126 0.935,1.645 -0.544,1.725c-7.268,0.39 -23.507,-0.036 -25.551,-0.09c1.283,-5.521 3.82,-10.59 2.932,-13.331Z" style="fill:#bba167;"/><path d="M412.882,237.688c0.185,0.01 2.018,0.11 2.286,0.394c0.912,0.966 0.029,22.521 -3.849,40.53c-3.634,16.876 -14.014,32.941 -14.914,33.072c-5.643,0.824 10.769,-5.115 14.029,-60.819c0.64,-10.93 -1.055,-12.548 2.448,-13.177Z" style="fill:#b29f77;"/><path d="M337.962,237.804c1.15,44.123 14.411,62.702 17.641,67.228c1.327,1.859 1.397,1.984 1.499,2.168c0.107,0.192 -0.102,0.168 -1.427,2.349c-2.295,-3.078 -3.745,-4.473 -5.916,-8.349c-2.517,-4.493 -15.962,-28.496 -16.2,-62.308c-0.012,-1.766 0.919,-0.919 4.403,-1.088Z" style="fill:#ecddb4;"/><path d="M367.82,363.158c0.532,-0.013 1.064,-0.025 1.595,-0.038c1.02,3.033 0.528,3.127 0.648,86.506c0.028,19.356 0.537,19.393 0.077,21.009c-0.15,0.528 -0.622,0.925 -0.772,1.453l-0.742,0.012c-1.442,-1.881 -0.904,-2.062 -0.907,-4.476c-0.143,-96.155 -0.672,-96.144 0.1,-104.465Z" style="fill:#f5e0ab;"/><path d="M369.416,363.12c1.642,0.195 2.143,-0.462 2.707,1.067c0.824,2.233 0.413,93.094 0.376,101.189c-0.021,4.577 1.436,6.634 -3.13,6.712c0.15,-0.528 0.622,-0.925 0.772,-1.453c0.459,-1.617 -0.05,-1.654 -0.077,-21.009c-0.12,-83.379 0.371,-83.473 -0.648,-86.506Z" style="fill:#b8a679;"/><path d="M697.222,684.633c-5.956,6.639 -5.939,6.59 -12.608,12.592c-6.584,-8.199 -8.466,-5.627 -11.291,-7.837c-2.472,-1.933 9.879,-2.385 13.961,-14.048c0.073,-0.209 1.432,-4.092 2.348,-1.468c1.275,3.652 2.52,6.99 7.591,10.761Z" style="fill:#909090;"/><path d="M374.596,487.487c0.888,2.741 -1.649,7.81 -2.932,13.331c-20.428,0.266 -23.241,0.545 -21.66,-0.816c3.154,-2.714 5.401,-0.424 12.065,-11.276c0.569,-0.927 0.678,-1.497 6.497,-1.144c2.01,-0.032 4.019,-0.063 6.029,-0.095Z" style="fill:#d6c395;"/><path d="M391.894,504.823c-1.463,1.462 -1.33,1.742 -2.275,1.778c-4.702,0.175 -14.477,0.341 -15.736,0.362c-3.827,0.065 -6.808,-1.218 -6.711,6.62c-6.435,0.013 -6.369,0.066 -12.841,-0.05c0.388,-1.983 0.13,-1.987 0.767,-3.918c2.128,-6.45 -4.271,-0.251 -12.185,-4.044c0.837,-0.392 0.758,-0.471 1.646,-0.626c3.73,-0.651 3.709,-0.53 47.335,-0.121Z" style="fill:#efe0b7;"/><path d="M378.354,328.447c5.183,-0.128 8.324,-2.475 7.541,2.681c-0.867,5.716 4.109,14.782 4.074,15.087c-0.119,1.043 -0.523,1.517 -13.111,0.565c6.759,-13.967 1.558,-14.533 1.495,-18.333Z" style="fill:#baa26c;"/><path d="M355.857,552.202l0.225,-0.577c1.584,-27.222 -2.271,-31.222 3.538,-30.709c1.62,0.143 1.223,1.083 1.217,28.453c-0,1.461 0.09,1.394 0.311,2.838c-1.764,-0.001 -3.527,-0.003 -5.291,-0.004Z" style="fill:#bba369;"/><path d="M332.522,578.914c-5.367,0.433 -5.339,0.18 -13.443,0.125c1.006,-3.119 -0.59,-4.413 1.758,-6.96c2.502,-2.714 12.329,-2.741 12.325,-0.2c-0.005,3.565 -0.516,3.469 -0.64,7.035Z" style="fill:#b79b63;"/><path d="M342.913,505.571c7.914,3.793 14.313,-2.406 12.185,4.044c-0.637,1.931 -0.379,1.935 -0.767,3.918c-11.348,0.162 -13.887,0.51 -13.941,-1.682c-0.113,-4.637 0.804,-4.925 2.522,-6.28Z" style="fill:#baa16d;"/><path d="M385.11,350.715c-0.366,1.972 -0.23,2.503 -2.25,2.578c-7.515,0.28 -8.077,-0.454 -8.782,1.141c-0.912,2.065 -2.668,1.78 -7.708,1.475c-1.225,-0.074 -0.96,-0.46 -1.212,-1.603c-0.482,-2.191 -2.122,-0.575 -4.204,-3.178c1.067,-0.339 1.026,-0.344 24.157,-0.413Z" style="fill:#f1e7bc;"/><path d="M376.881,328.366l1.473,0.081c0.063,3.8 5.264,4.366 -1.495,18.333c-3.376,0.112 -3.315,0.085 -6.737,0.113c5.981,-6.456 6.993,-6.575 6.888,-18.018l-0.129,-0.509Z" style="fill:#f4e4b1;"/><path d="M376.881,328.366l0.129,0.509c0.105,11.443 -0.906,11.562 -6.888,18.018c-0.295,0.006 -3.631,0.068 -3.617,-0.739c0.005,-0.265 1.659,-1.627 1.836,-1.804c7.761,-7.761 6.058,-13.562 6.091,-14.734c0.038,-1.351 0.669,-0.856 2.448,-1.25Z" style="fill:#b9a87f;"/><path d="M417.898,500.574c-0.191,0.195 -0.382,0.389 -0.573,0.584c-5.298,-0.437 -5.761,0.104 -9.378,-3.822c-2.135,-2.317 -5.336,-8.429 -4.721,-9.388c1.737,-2.71 4.65,3.85 6.137,5.743c4.282,5.451 7.394,4.656 8.535,6.883Z" style="fill:#ae9e79;"/><path d="M396.578,340.717c4.438,5.02 6.981,6.391 4.34,6.335c-9.391,-0.198 -12.374,-21.532 -7.762,-18.585c0.673,0.43 -0.029,3.066 0.26,4.903c0.703,4.467 2.936,7.004 3.162,7.347Z" style="fill:#a99e80;"/><path d="M326.607,563.459c0.463,-1.034 0.83,-0.834 0.912,-2.034c0.233,-3.391 8.697,-2.679 11.162,-2.549c2.153,0.113 -0.05,2.044 0.723,4.553c-1.024,0.012 -8.978,0.109 -12.797,0.03Z" style="fill:#ae9a6c;"/><path d="M335.621,233.601c-0.177,-2.685 -1.171,-3.915 1.485,-3.958c4.899,-0.078 9.069,-0.631 8.997,1.733c-0.005,0.168 -0.039,1.28 0.049,2.1c-5.653,0.361 -5.586,0.191 -10.532,0.124Z" style="fill:#b7a370;"/><path d="M395.345,479.541c2.132,-2.244 10.465,-1.214 10.845,0.061c0.793,2.662 -5.465,1.915 -9.084,1.869c-2.32,-0.03 -1.676,-1.466 -1.761,-1.929Z" style="fill:#392d15;"/><path d="M397.876,353.015c1.596,-0.001 7.071,-0.18 7.73,0.32c1.272,0.965 0.204,2.17 -0.308,2.334c-0.756,0.243 -9.634,0.117 -9.653,0.114c-0.281,-0.046 -3.021,-2.429 2.232,-2.768Z" style="fill:#372608;"/><path d="M613.892,725.111c7.651,0.823 7.588,0.698 8.235,0.837c0.332,0.071 0.414,0.622 0.746,0.694c-14.676,0.072 -14.591,-0.081 -29.244,-0.408c10.16,-0.704 10.105,-0.889 20.263,-1.123Z" style="fill:#bbbab8;fill-opacity:0.55;"/><path d="M154.109,725.13c6.351,0.126 6.284,0.3 16.513,1.109c-12.402,0.328 -12.345,0.464 -24.744,0.4c0.313,-0.114 0.433,-0.549 0.746,-0.663c0.471,-0.171 6.886,-0.789 7.485,-0.846Z" style="fill:#adacaa;fill-opacity:0.51;"/><path d="M726.244,601.128c0.479,10.656 0.487,11.331 0.398,23.246c-0.099,-0.325 -0.596,-0.422 -0.694,-0.747c-0.216,-0.712 -0.765,-6.191 -0.819,-6.73c0.169,-7.936 0.327,-7.88 1.115,-15.768Z" style="fill:#b4b4b4;fill-opacity:0.5;"/><path d="M41.753,601.879c0.677,6.752 0.54,6.721 1.14,13.516c-0.057,0.6 -0.657,6.881 -0.835,7.482c-0.097,0.328 -0.606,0.419 -0.703,0.746c-0.064,-10.883 -0.016,-10.827 0.398,-21.745Z" style="fill:#cacbcd;fill-opacity:0.42;"/><path d="M143.628,41.366c1.259,-0.042 11.525,-0.381 15.738,0.444c-4.205,0.559 -4.132,0.567 -8.274,1.05c-5.554,-0.65 -6.906,-1.248 -7.463,-1.494Z" style="fill:#dfe0df;fill-opacity:0.28;"/><path d="M41.358,144.377c0.085,0.282 0.619,0.115 1.497,7.472c-0.472,4.178 -0.374,4.138 -1.083,8.271c-0.421,-5.668 -0.497,-5.619 -0.414,-15.743Z" style="fill:#c3c3c2;fill-opacity:0.48;"/><path d="M726.64,143.627c0.051,5.984 0.462,9.388 -0.395,14.241c-0.602,-4.164 -0.618,-4.117 -1.134,-8.273c0.188,-1.141 0.284,-1.082 0.364,-2.211c0.249,-3.512 1.067,-3.481 1.165,-3.756Z" style="fill:#cdcecd;fill-opacity:0.43;"/><path d="M609.385,41.767c5.559,-0.395 5.512,-0.492 14.238,-0.402c-0.328,0.104 -0.418,0.611 -0.746,0.714c-0.156,0.049 -4.806,0.738 -5.224,0.8c-4.141,-0.535 -4.096,-0.538 -8.268,-1.112Z" style="fill:#bcbcbc;fill-opacity:0.48;"/><path d="M318.974,279.484c0.882,-1.046 0.817,-1.87 1.92,-1.077c3.369,2.422 -1.749,1.12 -1.92,1.077Z" style="fill:#b49b69;"/></g><path d="M384,-192c317.903,0 576,258.097 576,576c0,317.903 -258.097,576 -576,576c-317.903,0 -576,-258.097 -576,-576c0,-317.903 258.097,-576 576,-576Zm0,288c158.952,0 288,129.048 288,288c0,158.952 -129.048,288 -288,288c-158.952,0 -288,-129.048 -288,-288c0,-158.952 129.048,-288 288,-288Z" style="fill:#222224;"/></svg>
